<svg xmlns="http://www.w3.org/2000/svg" width="150" height="150"><defs><g id="decoration-12-g-a096444ef5d14e2eb7bf1003dec16a55"><path stroke="rgba(39,131,206,1)" stroke-width="75" fill="transparent" d="M75,37.5 A37.5, 37.5 0 0 0 73.69127,37.52284"></path><path stroke="rgba(39,131,206,0.9655172413793103)" stroke-width="75" fill="transparent" d="M73.69127,37.52284 A37.5, 37.5 0 0 0 72.38413,37.59135"></path><path stroke="rgba(39,131,206,0.9310344827586207)" stroke-width="75" fill="transparent" d="M72.38413,37.59135 A37.5, 37.5 0 0 0 71.08018,37.70543"></path><path stroke="rgba(39,131,206,0.896551724137931)" stroke-width="75" fill="transparent" d="M71.08018,37.70543 A37.5, 37.5 0 0 0 69.78101,37.86495"></path><path stroke="rgba(39,131,206,0.8620689655172414)" stroke-width="75" fill="transparent" d="M69.78101,37.86495 A37.5, 37.5 0 0 0 68.48819,38.06971"></path><path stroke="rgba(39,131,206,0.8275862068965517)" stroke-width="75" fill="transparent" d="M68.48819,38.06971 A37.5, 37.5 0 0 0 67.20331,38.31946"></path><path stroke="rgba(39,131,206,0.7931034482758621)" stroke-width="75" fill="transparent" d="M67.20331,38.31946 A37.5, 37.5 0 0 0 65.92793,38.61391"></path><path stroke="rgba(39,131,206,0.7586206896551724)" stroke-width="75" fill="transparent" d="M65.92793,38.61391 A37.5, 37.5 0 0 0 64.66360,38.95269"></path><path stroke="rgba(39,131,206,0.7241379310344829)" stroke-width="75" fill="transparent" d="M64.66360,38.95269 A37.5, 37.5 0 0 0 63.41186,39.33538"></path><path stroke="rgba(39,131,206,0.6896551724137931)" stroke-width="75" fill="transparent" d="M63.41186,39.33538 A37.5, 37.5 0 0 0 62.17424,39.76153"></path><path stroke="rgba(39,131,206,0.6551724137931035)" stroke-width="75" fill="transparent" d="M62.17424,39.76153 A37.5, 37.5 0 0 0 60.95225,40.23061"></path><path stroke="rgba(39,131,206,0.6206896551724138)" stroke-width="75" fill="transparent" d="M60.95225,40.23061 A37.5, 37.5 0 0 0 59.74738,40.74205"></path><path stroke="rgba(39,131,206,0.5862068965517241)" stroke-width="75" fill="transparent" d="M59.74738,40.74205 A37.5, 37.5 0 0 0 58.56108,41.29522"></path><path stroke="rgba(39,131,206,0.5517241379310345)" stroke-width="75" fill="transparent" d="M58.56108,41.29522 A37.5, 37.5 0 0 0 57.39482,41.88947"></path><path stroke="rgba(39,131,206,0.5172413793103449)" stroke-width="75" fill="transparent" d="M57.39482,41.88947 A37.5, 37.5 0 0 0 56.25000,42.52405"></path><path stroke="rgba(39,131,206,0.48275862068965525)" stroke-width="75" fill="transparent" d="M56.25000,42.52405 A37.5, 37.5 0 0 0 55.12803,43.19820"></path><path stroke="rgba(39,131,206,0.4482758620689655)" stroke-width="75" fill="transparent" d="M55.12803,43.19820 A37.5, 37.5 0 0 0 54.03027,43.91109"></path><path stroke="rgba(39,131,206,0.41379310344827586)" stroke-width="75" fill="transparent" d="M54.03027,43.91109 A37.5, 37.5 0 0 0 52.95805,44.66186"></path><path stroke="rgba(39,131,206,0.37931034482758624)" stroke-width="75" fill="transparent" d="M52.95805,44.66186 A37.5, 37.5 0 0 0 51.91269,45.44960"></path><path stroke="rgba(39,131,206,0.34482758620689663)" stroke-width="75" fill="transparent" d="M51.91269,45.44960 A37.5, 37.5 0 0 0 50.89546,46.27333"></path><path stroke="rgba(39,131,206,0.31034482758620696)" stroke-width="75" fill="transparent" d="M50.89546,46.27333 A37.5, 37.5 0 0 0 49.90760,47.13207"></path><path stroke="rgba(39,131,206,0.2758620689655173)" stroke-width="75" fill="transparent" d="M49.90760,47.13207 A37.5, 37.5 0 0 0 48.95031,48.02476"></path><path stroke="rgba(39,131,206,0.24137931034482762)" stroke-width="75" fill="transparent" d="M48.95031,48.02476 A37.5, 37.5 0 0 0 48.02476,48.95031"></path><path stroke="rgba(39,131,206,0.20689655172413793)" stroke-width="75" fill="transparent" d="M48.02476,48.95031 A37.5, 37.5 0 0 0 47.13207,49.90760"></path><path stroke="rgba(39,131,206,0.17241379310344826)" stroke-width="75" fill="transparent" d="M47.13207,49.90760 A37.5, 37.5 0 0 0 46.27333,50.89546"></path><path stroke="rgba(39,131,206,0.13793103448275873)" stroke-width="75" fill="transparent" d="M46.27333,50.89546 A37.5, 37.5 0 0 0 45.44960,51.91269"></path><path stroke="rgba(39,131,206,0.10344827586206903)" stroke-width="75" fill="transparent" d="M45.44960,51.91269 A37.5, 37.5 0 0 0 44.66186,52.95805"></path><path stroke="rgba(39,131,206,0.06896551724137936)" stroke-width="75" fill="transparent" d="M44.66186,52.95805 A37.5, 37.5 0 0 0 43.91109,54.03027"></path><path stroke="rgba(39,131,206,0.03448275862068968)" stroke-width="75" fill="transparent" d="M43.91109,54.03027 A37.5, 37.5 0 0 0 43.19820,55.12803"></path><path stroke="rgba(39,131,206,0)" stroke-width="75" fill="transparent" d="M43.19820,55.12803 A37.5, 37.5 0 0 0 42.52405,56.25000"></path></g> <radialGradient id="decoration-12-gradient-a096444ef5d14e2eb7bf1003dec16a55" cx="50%" cy="50%" r="50%"><stop offset="0%" stop-color="transparent" stop-opacity="1"></stop> <stop offset="100%" stop-color="rgba(44,247,254,0.3)" stop-opacity="1"></stop></radialGradient></defs> <circle r="24.833333333333332" cx="75" cy="75" stroke="#2cf7fe" stroke-width="0.5" fill="transparent"></circle><circle r="49.666666666666664" cx="75" cy="75" stroke="#2cf7fe" stroke-width="0.5" fill="transparent"></circle><circle r="74.5" cx="75" cy="75" stroke="#2cf7fe" stroke-width="0.5" fill="transparent"></circle> <circle r="1" cx="75" cy="75" stroke="transparent" fill="url(#decoration-12-gradient-a096444ef5d14e2eb7bf1003dec16a55)"><animate attributeName="r" values="1;75" dur="2s" repeatCount="indefinite"></animate> <animate attributeName="opacity" values="1;0" dur="2s" repeatCount="indefinite"></animate></circle> <circle r="2" cx="75" cy="75" fill="#2cf7fe"></circle> <g><polyline points="139.9519052838329,112.5 10.048094716167085,37.50000000000002" stroke="#2cf7fe" stroke-width="0.5" opacity="0.5"></polyline><polyline points="112.5,139.9519052838329 37.499999999999964,10.048094716167114" stroke="#2cf7fe" stroke-width="0.5" opacity="0.5"></polyline><polyline points="75,150 74.99999999999999,0" stroke="#2cf7fe" stroke-width="0.5" opacity="0.5"></polyline><polyline points="37.500000000000014,139.9519052838329 112.49999999999994,10.048094716167071" stroke="#2cf7fe" stroke-width="0.5" opacity="0.5"></polyline><polyline points="10.048094716167114,112.50000000000003 139.95190528383287,37.499999999999964" stroke="#2cf7fe" stroke-width="0.5" opacity="0.5"></polyline><polyline points="0,75.00000000000001 150,74.99999999999999" stroke="#2cf7fe" stroke-width="0.5" opacity="0.5"></polyline></g> <path d="M139.08587988004848,112 A75, 75 0 0 1 112,139.08587988004845" stroke="#2cf7fe" stroke-width="2" fill="transparent"></path><path d="M38.000000000000014,139.08587988004848 A75, 75 0 0 1 10.914120119951548,112.00000000000003" stroke="#2cf7fe" stroke-width="2" fill="transparent"></path><path d="M10.914120119951534,38.00000000000002 A75, 75 0 0 1 37.999999999999964,10.914120119951548" stroke="#2cf7fe" stroke-width="2" fill="transparent"></path><path d="M111.99999999999994,10.914120119951505 A75, 75 0 0 1 139.08587988004842,37.999999999999964" stroke="#2cf7fe" stroke-width="2" fill="transparent"></path> <use xlink:href="#decoration-12-g-a096444ef5d14e2eb7bf1003dec16a55"><animateTransform attributeName="transform" type="rotate" values="0, 75 75;360, 75 75" dur="3s" repeatCount="indefinite"></animateTransform></use></svg>
