<?xml version="1.0" standalone="no"?><!DOCTYPE svg PUBLIC "-//W3C//DTD SVG 1.1//EN" "http://www.w3.org/Graphics/SVG/1.1/DTD/svg11.dtd"><svg t="1602162447737" class="icon" viewBox="0 0 1024 1024" version="1.1" xmlns="http://www.w3.org/2000/svg" p-id="6509" xmlns:xlink="http://www.w3.org/1999/xlink" width="300" height="300"><defs><style type="text/css"></style></defs><path d="M520.008326 88.154864z m446.871754 144.191029a98.86067 98.86067 0 0 0-79.590783-91.019466 1256.873253 1256.873253 0 0 1-169.995253-38.591023A631.268172 631.268172 0 0 1 567.773046 17.122781a101.833153 101.833153 0 0 0-120.436794 5.406843 393.75144 393.75144 0 0 1-148.31663 81.410148 571.664772 571.664772 0 0 1-163.384041 40.384763A93.479452 93.479452 0 0 0 54.251058 232.96089l24.856104 295.352017c4.048726 239.412971 272.366527 495.687093 435.135573 495.687093 159.155941 0 411.150713-177.247085 449.741737-499.684569a2917.568512 2917.568512 0 0 0 2.921233-291.969538z m-82.486391 297.043258c-24.471731 282.180845-250.431656 404.590752-369.510333 404.590752s-354.69917-197.131969-358.747896-409.997595L136.788699 255.459508a32.312935 32.312935 0 0 1 23.062365-28.853581 584.605321 584.605321 0 0 0 173.403357-41.537881 421.144405 421.144405 0 0 0 162.999669-89.405101 37.694154 37.694154 0 0 1 22.216745-7.533706 35.87479 35.87479 0 0 1 22.857366 5.791216 650.153687 650.153687 0 0 0 152.621605 90.583844 1239.678979 1239.678979 0 0 0 173.403358 39.795392 36.951033 36.951033 0 0 1 28.187334 32.312935c-0.076875 1.178743-3.971852 104.523762-11.121184 272.776525z m-153.236601-172.224615l-267.523431 253.224765-133.83859-141.679794a40.99976 40.99976 0 0 0-60.295272 55.4778l161.436554 171.225245 7.841204 6.636836a40.436013 40.436013 0 0 0 49.455959-4.817471l297.248257-280.976477 1.204368 1.204368a40.99976 40.99976 0 0 0-55.503425-60.295272z" p-id="6510" fill="#07abcc"></path></svg>