<svg xmlns="http://www.w3.org/2000/svg" class="leaflet-zoom-animated" width="2000" height="1101" viewBox="-304 -167 2000 1101" style="transform: translate3d(-304px, -167px, 0px);"><g><path stroke-linejoin="round" stroke-linecap="round" fill-rule="evenodd" stroke="#333" stroke-opacity="1" stroke-width="1" fill="transparent" fill-opacity="0.2" class="leaflet-clickable" d="M830 162L837 165L841 163L844 166L844 168L847 166L848 161L851 162L851 170L853 176L855 177L856 190L859 193L855 198L854 204L866 210L869 210L875 206L879 209L880 208L881 210L878 213L879 219L876 220L879 232L876 234L876 239L878 239L879 241L885 239L883 238L884 235L887 233L882 227L883 225L886 225L888 223L892 227L891 228L894 229L893 234L895 235L893 243L889 245L893 255L897 249L901 254L907 252L908 255L915 258L917 252L922 255L924 252L922 250L922 247L924 247L928 239L928 231L929 232L932 226L939 223L939 242L942 244L941 246L945 244L947 245L946 247L951 247L948 248L942 267L942 271L945 268L949 271L942 278L944 285L943 286L946 291L945 298L948 299L948 303L952 303L957 307L957 313L955 317L956 319L944 326L942 328L942 333L940 334L937 334L934 331L930 334L928 331L925 334L927 334L924 343L919 343L919 348L914 350L913 349L913 351L906 356L908 357L908 361L903 366L902 365L899 368L897 367L896 369L903 375L903 377L905 375L909 376L909 372L915 369L917 366L918 367L925 364L927 365L924 368L924 370L928 370L930 368L931 369L937 361L938 364L951 361L955 365L956 363L956 368L958 370L956 370L959 372L960 369L962 370L964 376L964 378L962 379L964 379L965 382L962 385L961 384L954 388L959 402L956 401L951 406L949 405L950 406L947 408L940 408L945 413L947 412L952 424L949 426L950 429L947 431L949 432L944 435L939 446L940 449L944 449L947 452L953 449L954 450L956 447L958 448L954 455L957 459L958 464L959 463L961 466L960 469L955 468L958 478L951 483L953 483L954 486L950 490L950 492L945 496L945 506L941 508L934 505L933 500L930 498L932 502L929 503L929 505L926 503L928 501L925 498L922 500L913 501L913 505L909 505L906 507L905 511L910 511L913 507L915 507L915 505L917 507L918 505L922 507L917 516L919 517L919 522L922 524L917 528L910 524L905 525L902 523L897 527L895 524L895 517L886 517L886 521L885 520L883 522L883 524L886 526L881 527L879 530L881 532L880 533L879 531L877 537L880 540L880 549L877 546L877 543L868 534L866 533L863 536L859 529L852 526L851 529L845 533L846 535L844 537L844 534L841 533L838 535L838 537L841 537L841 539L836 540L838 542L836 545L836 556L834 556L834 558L831 560L824 560L812 565L809 568L802 568L804 564L804 562L801 560L802 557L801 555L796 560L796 557L793 555L792 548L790 548L788 554L786 553L787 554L780 557L780 559L776 558L776 549L773 551L770 545L771 541L768 538L765 540L761 539L760 536L763 535L762 530L753 523L754 521L752 518L747 522L738 523L739 527L733 531L732 535L729 536L731 543L734 545L734 552L731 554L732 555L724 555L722 561L712 561L708 563L702 562L695 571L692 571L689 574L682 576L681 578L669 582L661 581L658 584L655 584L659 590L660 596L657 604L655 603L654 606L647 610L643 616L640 615L636 607L629 607L624 610L615 603L607 602L606 599L598 600L595 598L591 587L586 585L574 587L573 583L568 580L565 584L562 583L562 585L557 588L557 590L554 592L553 600L549 603L541 604L536 612L529 614L526 618L520 614L517 614L512 608L507 606L509 604L508 598L517 589L524 579L522 574L517 574L522 572L523 567L526 563L525 560L528 558L534 564L533 556L535 556L534 553L526 553L524 551L518 550L519 549L517 543L508 538L510 527L509 526L509 528L507 527L503 530L500 530L500 532L498 531L498 521L490 519L487 513L489 509L489 504L493 506L499 496L498 493L500 492L499 489L497 490L497 488L500 485L502 478L501 471L502 470L505 472L507 469L507 462L510 451L513 447L518 445L522 441L520 439L520 435L517 433L516 428L511 426L512 422L510 419L504 420L501 417L502 413L498 407L496 407L494 413L488 417L487 415L484 414L484 416L480 416L471 413L465 422L466 426L464 427L447 427L443 425L441 421L438 420L436 415L438 413L437 409L439 406L438 404L435 405L432 396L435 392L439 391L439 382L437 381L435 375L432 372L424 376L425 373L423 371L425 369L427 370L428 368L425 367L426 365L432 364L437 355L447 348L448 343L451 341L453 332L455 334L460 333L461 338L467 342L470 342L472 344L471 346L475 350L482 346L484 340L487 335L489 335L492 329L496 330L498 333L502 335L505 335L504 336L506 336L509 343L515 346L525 342L528 342L529 345L533 341L535 341L537 343L537 346L539 347L542 346L542 344L556 334L563 334L565 336L566 335L567 339L570 336L574 324L571 321L578 314L577 312L579 310L579 304L585 299L597 299L600 303L605 304L607 309L609 309L611 307L616 307L616 305L620 303L627 305L631 301L634 300L635 302L647 299L647 297L653 297L659 300L671 294L673 292L670 291L672 287L671 285L669 285L669 281L671 279L668 274L664 273L663 271L666 268L662 264L662 262L653 257L645 260L645 263L639 263L638 260L632 262L629 259L631 250L622 240L622 243L620 242L617 244L618 246L613 245L609 241L610 234L609 230L606 229L607 222L613 219L613 214L615 214L617 211L621 213L622 211L631 213L633 211L631 210L631 205L634 204L638 196L645 201L644 203L649 203L651 209L655 208L659 215L667 219L671 223L671 225L676 225L676 216L678 215L685 220L687 218L684 214L687 214L688 216L689 215L686 212L687 206L689 206L688 200L683 196L682 192L684 189L683 188L685 188L686 191L693 197L692 199L694 202L697 204L698 203L697 204L701 207L698 208L698 216L695 220L692 221L693 224L695 224L695 222L699 222L700 225L704 224L704 227L706 228L709 226L707 221L708 218L712 216L710 211L717 213L717 211L720 210L722 204L719 202L720 201L716 196L718 194L725 191L728 194L731 194L731 186L733 186L734 183L738 184L737 182L739 183L739 185L741 184L741 182L746 184L750 182L750 187L753 188L752 194L755 196L756 192L762 191L764 189L763 187L766 187L768 185L773 177L769 174L769 172L766 171L768 167L766 161L770 161L771 157L769 151L775 150L774 152L777 153L783 148L785 149L787 155L792 154L796 156L799 153L798 152L801 150L805 156L804 166L807 167L806 172L809 175L811 175L813 170L815 170L817 167L826 167L827 165z"/></g><g><path stroke-linejoin="round" stroke-linecap="round" fill-rule="evenodd" stroke="#333" stroke-opacity="1" stroke-width="1" fill="transparent" fill-opacity="0.2" class="leaflet-clickable" d="M558 588L559 587L558 588z"/></g><g><path stroke-linejoin="round" stroke-linecap="round" fill-rule="evenodd" stroke="#333" stroke-opacity="1" stroke-width="1" fill="transparent" fill-opacity="0.2" class="leaflet-clickable" d="M958 394L956 391L958 388L961 390L960 395L962 403L959 402z"/></g><g><path stroke-linejoin="round" stroke-linecap="round" fill-rule="evenodd" stroke="#333" stroke-opacity="1" stroke-width="1" fill="transparent" fill-opacity="0.2" class="leaflet-clickable" d="M963 403L965 404L967 400L969 401L964 406L964 404z"/></g><g><path stroke-linejoin="round" stroke-linecap="round" fill-rule="evenodd" stroke="#999" stroke-opacity="1" stroke-width="1" stroke-dasharray="1,6" fill="transparent" fill-opacity="0.2" class="leaflet-clickable" d="M751 341L751 345L745 351L747 353L754 352L756 355L756 359L749 362L750 364L748 368L748 373L750 374L750 376L754 377L758 391L757 397L756 398L744 395L736 401L732 403L731 402L729 404L731 405L729 405L730 409L728 409L729 413L724 413L722 415L725 418L717 422L718 426L715 429L715 431L717 432L715 433L716 435L713 435L710 439L712 441L715 439L717 440L717 443L713 446L717 448L721 447L720 449L722 451L719 454L722 456L719 460L717 460L714 456L714 451L710 452L710 450L707 451L704 449L700 452L699 451L699 454L696 456L688 456L686 452L687 449L693 444L693 442L691 440L686 440L682 432L679 434L671 433L673 432L673 429L671 429L670 424L668 424L667 422L663 424L658 422L659 420L653 413L657 409L657 402L653 397L653 394L662 388L665 392L669 388L674 388L676 379L682 376L679 373L679 362L682 358L698 349L699 346L706 345L708 351L710 352L708 354L709 355L714 345L716 344L718 344L720 348L723 350L732 341L736 341L740 344L748 341z"/></g><g><path stroke-linejoin="round" stroke-linecap="round" fill-rule="evenodd" stroke="#999" stroke-opacity="1" stroke-width="1" stroke-dasharray="1,6" fill="transparent" fill-opacity="0.2" class="leaflet-clickable" d="M599 442L595 445L595 449L593 450L593 452L597 456L604 455L605 458L611 458L616 462L612 462L611 464L607 463L605 471L600 471L596 476L574 478L573 480L571 479L568 472L568 468L566 467L567 462L565 461L563 463L559 463L555 461L551 465L551 469L547 474L544 485L546 487L546 492L540 495L539 498L539 505L542 508L542 510L538 517L540 520L539 523L543 524L537 538L537 541L540 543L539 544L537 543L535 545L528 545L522 547L522 543L515 543L508 538L510 529L509 526L509 528L507 527L503 530L500 530L500 532L498 531L498 521L494 521L490 519L488 516L489 515L487 513L489 509L489 504L493 506L499 496L498 493L500 492L499 489L497 490L497 488L500 485L502 478L501 471L502 470L505 472L507 469L507 462L510 451L513 447L518 445L522 441L520 439L520 435L517 433L516 428L511 426L511 424L521 426L520 424L522 424L522 418L527 413L527 409L529 409L528 399L535 389L537 389L538 392L543 394L546 389L552 385L553 389L550 393L551 396L555 396L555 400L558 401L559 403L558 413L561 416L562 415L563 420L570 420L570 425L579 425L580 427L583 427L581 429L583 431L584 430L585 432L596 434L598 440z"/></g><g><path stroke-linejoin="round" stroke-linecap="round" fill-rule="evenodd" stroke="#999" stroke-opacity="1" stroke-width="1" stroke-dasharray="1,6" fill="transparent" fill-opacity="0.2" class="leaflet-clickable" d="M524 397L519 404L513 403L517 391L519 394L522 392L523 393z"/></g><g><path stroke-linejoin="round" stroke-linecap="round" fill-rule="evenodd" stroke="#999" stroke-opacity="1" stroke-width="1" stroke-dasharray="1,6" fill="transparent" fill-opacity="0.2" class="leaflet-clickable" d="M830 162L831 170L836 178L835 184L841 192L842 190L843 194L840 198L839 203L834 209L827 213L827 217L830 220L828 223L828 229L830 231L827 237L824 234L826 233L823 230L822 231L824 230L824 228L821 228L820 232L823 235L816 235L811 237L811 253L807 256L806 255L803 267L806 267L806 270L808 269L808 271L811 271L812 268L817 274L815 278L816 284L814 285L813 290L819 298L817 300L818 306L815 313L815 319L813 321L809 320L806 327L802 328L801 330L805 332L805 336L802 337L803 341L806 341L807 344L814 342L816 345L816 343L819 341L819 345L821 345L827 351L825 354L821 355L821 357L816 357L815 359L813 359L813 363L811 363L810 360L807 361L809 358L808 357L802 357L803 356L799 354L791 352L791 350L783 351L783 355L780 352L779 356L776 352L774 352L778 345L777 339L772 339L771 342L767 340L769 334L766 332L765 329L761 330L757 328L757 332L755 336L751 339L751 341L746 341L741 344L736 341L732 341L723 350L720 348L718 344L716 344L714 345L709 355L708 354L710 352L708 351L705 341L707 334L705 333L705 329L702 330L700 325L697 323L691 324L689 328L683 327L683 325L679 325L675 327L675 329L671 327L670 322L672 321L672 319L667 314L663 318L664 320L657 320L649 310L643 309L642 300L647 299L647 297L653 297L659 300L673 292L670 291L672 287L671 285L669 285L669 281L671 279L668 274L664 273L663 271L666 268L659 260L653 257L645 260L645 263L639 263L638 260L632 262L629 259L631 250L622 240L622 243L620 242L617 244L618 246L613 245L609 241L610 234L609 230L606 229L606 224L611 219L613 219L614 213L615 214L617 211L621 213L622 211L631 213L633 211L631 210L631 205L634 204L638 196L645 201L644 203L649 203L651 209L655 208L659 215L667 219L671 223L671 225L676 225L676 216L678 215L685 220L687 218L684 214L687 214L688 216L689 215L686 212L687 206L689 206L688 200L683 196L682 192L684 189L683 188L685 188L686 191L693 197L692 199L694 202L697 204L698 203L697 204L701 207L698 208L698 216L695 220L692 221L693 224L695 224L695 222L699 222L700 225L704 224L704 227L706 228L709 226L707 221L708 218L712 216L710 211L717 213L717 211L720 210L722 204L719 202L720 201L716 196L718 194L725 191L728 194L731 194L731 186L733 186L734 183L738 184L737 182L739 183L739 185L741 184L741 182L746 184L750 182L750 187L753 188L752 194L755 196L756 192L762 191L764 189L763 187L766 187L768 185L773 177L769 174L769 172L766 171L768 167L766 161L770 161L771 157L769 151L775 150L774 152L777 153L783 148L785 149L787 155L792 154L796 156L799 153L798 152L801 150L805 156L804 166L807 167L806 172L809 175L811 175L813 170L815 170L817 167L826 167L827 165z"/></g><g><path stroke-linejoin="round" stroke-linecap="round" fill-rule="evenodd" stroke="#999" stroke-opacity="1" stroke-width="1" stroke-dasharray="1,6" fill="transparent" fill-opacity="0.2" class="leaflet-clickable" d="M818 362L818 360L818 362z"/></g><g><path stroke-linejoin="round" stroke-linecap="round" fill-rule="evenodd" stroke="#999" stroke-opacity="1" stroke-width="1" stroke-dasharray="1,6" fill="transparent" fill-opacity="0.2" class="leaflet-clickable" d="M573 480L574 478L596 476L600 471L605 471L606 463L611 465L613 462L615 462L615 460L612 458L605 458L604 456L601 455L597 456L593 452L596 444L609 435L613 435L614 433L619 433L621 431L626 431L633 426L639 426L639 434L652 430L656 418L655 415L659 420L658 421L660 424L667 422L668 424L670 424L670 429L673 429L673 431L671 432L675 434L681 432L682 436L686 440L693 441L691 447L689 447L686 452L674 450L672 456L670 456L668 453L663 456L666 456L669 459L667 459L665 465L668 467L666 470L665 469L661 477L663 477L664 475L670 481L667 482L668 488L665 495L663 496L665 505L662 508L663 509L669 507L669 511L677 514L679 514L681 511L686 516L681 522L679 530L678 529L677 533L680 535L679 538L677 538L681 542L679 543L671 544L668 540L662 540L659 532L656 533L656 531L656 533L654 534L651 528L648 527L651 525L648 519L646 523L641 522L640 518L639 519L638 522L641 524L633 530L636 536L632 537L622 532L622 529L613 514L603 508L600 510L597 508L595 504L586 498L584 494L585 491L579 489L574 484L574 480z"/></g><g><path stroke-linejoin="round" stroke-linecap="round" fill-rule="evenodd" stroke="#999" stroke-opacity="1" stroke-width="1" stroke-dasharray="1,6" fill="transparent" fill-opacity="0.2" class="leaflet-clickable" d="M662 475L662 476z"/></g><g><path stroke-linejoin="round" stroke-linecap="round" fill-rule="evenodd" stroke="#999" stroke-opacity="1" stroke-width="1" stroke-dasharray="1,6" fill="transparent" fill-opacity="0.2" class="leaflet-clickable" d="M599 442L596 434L585 432L584 430L583 431L581 429L583 427L580 427L579 425L570 425L570 421L567 419L564 420L562 415L561 416L558 413L559 403L558 401L555 401L555 396L551 396L550 394L553 389L552 385L548 387L543 394L541 394L537 389L535 389L528 399L528 401L523 398L524 397L522 392L519 394L517 391L519 388L518 385L517 384L515 386L513 381L506 382L504 381L503 378L494 375L493 378L490 377L491 371L488 366L489 361L487 360L487 355L484 351L477 352L475 350L482 346L484 340L487 335L489 335L492 329L496 330L498 333L502 335L505 335L504 336L506 336L509 343L515 346L525 342L528 342L529 345L533 341L535 341L537 343L537 346L539 347L542 346L542 344L556 334L563 334L565 336L566 335L567 339L572 332L572 327L574 324L571 321L578 314L577 312L579 310L579 304L583 300L589 298L599 300L600 303L605 304L607 309L611 307L616 307L616 305L620 303L627 305L631 301L634 300L635 302L642 300L642 309L649 309L656 320L663 320L663 318L667 315L666 314L670 316L672 318L672 321L670 322L672 328L675 329L675 327L679 325L683 325L683 327L688 328L691 324L697 323L700 325L702 330L705 329L705 333L707 334L705 341L706 345L699 346L698 349L682 358L678 365L679 373L682 376L675 381L674 387L672 389L669 388L665 392L663 388L653 394L653 397L657 401L657 409L656 411L653 412L656 418L654 420L652 430L639 434L638 425L626 431L622 431L620 433L617 432L614 433L613 435L609 435L601 441z"/></g><g><path stroke-linejoin="round" stroke-linecap="round" fill-rule="evenodd" stroke="#999" stroke-opacity="1" stroke-width="1" stroke-dasharray="1,6" fill="transparent" fill-opacity="0.2" class="leaflet-clickable" d="M517 391L517 395L514 397L513 403L519 404L524 397L523 398L528 401L529 404L527 413L522 418L522 424L520 424L521 426L512 424L510 419L504 420L501 417L501 411L498 407L496 407L494 413L491 416L488 417L487 415L484 414L484 416L480 416L471 413L465 422L466 426L447 427L443 425L441 421L438 420L436 415L438 413L437 409L439 406L438 404L435 405L432 396L435 392L439 391L439 382L437 381L435 375L432 372L424 376L425 373L423 371L425 369L427 370L428 368L425 367L427 364L432 364L437 355L447 348L448 343L451 341L453 332L455 334L460 333L461 338L467 342L470 342L472 344L471 346L477 352L484 351L487 355L487 360L489 361L488 366L490 368L489 369L491 370L490 377L492 378L494 375L499 376L503 378L504 381L506 382L512 381L514 385L515 386L517 384L519 388z"/></g><g><path stroke-linejoin="round" stroke-linecap="round" fill-rule="evenodd" stroke="#999" stroke-opacity="1" stroke-width="1" stroke-dasharray="1,6" fill="transparent" fill-opacity="0.2" class="leaflet-clickable" d="M830 162L837 165L841 163L844 166L844 168L847 166L848 161L851 162L851 170L853 176L855 177L856 190L859 193L855 198L854 204L866 210L869 210L875 206L879 209L880 208L881 210L878 213L879 219L876 220L879 232L876 234L876 239L878 239L879 241L885 239L883 238L884 235L887 233L882 227L883 225L886 225L888 223L892 227L891 228L894 229L893 234L895 235L893 243L889 245L893 255L897 249L901 254L907 252L908 255L915 258L917 252L922 255L924 252L922 250L922 247L924 247L928 239L928 231L929 232L932 226L939 223L939 242L942 244L941 246L945 244L947 245L946 247L951 247L948 248L942 267L942 271L945 268L949 271L942 278L944 285L943 286L946 291L945 298L948 299L948 303L952 303L957 307L957 313L955 317L956 319L944 326L942 328L942 333L940 334L937 334L934 331L930 334L928 331L925 334L927 334L924 343L919 343L919 348L914 350L913 349L913 351L906 356L908 357L908 361L904 365L896 356L899 355L902 346L900 341L902 341L902 339L904 340L904 342L906 340L915 339L918 335L913 330L911 331L910 330L912 327L908 325L906 327L899 325L899 328L894 327L893 329L891 329L888 324L880 324L876 329L872 329L870 334L867 335L863 333L853 341L849 342L845 339L843 340L839 348L835 344L831 343L823 346L819 345L819 341L816 343L812 342L807 344L806 341L803 341L802 338L805 337L805 332L801 331L802 328L806 327L809 320L813 321L815 319L816 309L818 307L817 301L819 298L813 290L817 274L812 268L811 271L808 271L808 269L806 270L806 267L803 267L805 259L806 256L811 253L811 237L818 235L823 236L820 232L821 229L824 228L824 230L822 230L824 231L824 234L827 237L830 231L828 229L828 224L830 221L829 218L827 218L827 214L829 211L835 208L843 194L842 190L841 191L835 185L836 178L831 171L831 163z"/></g><g><path stroke-linejoin="round" stroke-linecap="round" fill-rule="evenodd" stroke="#999" stroke-opacity="1" stroke-width="1" stroke-dasharray="1,6" fill="transparent" fill-opacity="0.2" class="leaflet-clickable" d="M816 343L816 345L816 343z"/></g><g><path stroke-linejoin="round" stroke-linecap="round" fill-rule="evenodd" stroke="#999" stroke-opacity="1" stroke-width="1" stroke-dasharray="1,6" fill="transparent" fill-opacity="0.2" class="leaflet-clickable" d="M689 574L682 576L681 578L674 581L661 581L658 584L655 584L659 590L660 596L657 604L655 603L654 606L647 610L643 616L640 615L636 607L629 607L624 610L615 603L607 602L606 599L598 600L595 598L591 587L586 585L574 587L573 583L568 580L565 584L562 583L562 585L557 588L557 590L554 592L552 601L549 603L541 604L536 612L529 614L526 618L520 614L517 614L512 608L507 606L509 604L508 598L517 589L524 579L522 574L517 574L522 572L523 567L526 563L525 560L528 558L534 564L534 553L526 553L524 551L518 550L518 545L520 542L522 543L522 547L540 543L537 541L537 539L543 524L539 523L540 520L538 518L542 510L542 508L539 505L539 498L541 494L546 492L546 487L544 485L547 474L551 469L551 465L555 461L559 463L567 461L566 467L568 468L568 472L571 479L573 481L574 480L574 484L579 489L585 491L584 494L586 498L595 504L595 506L599 510L602 508L608 512L611 512L617 522L619 523L622 532L632 537L635 536L633 530L641 524L638 522L639 519L640 518L640 521L645 523L648 519L651 523L648 527L654 531L653 534L656 533L656 531L656 533L659 532L662 540L668 540L671 544L680 544L680 546L684 548L686 553L687 559L683 562L683 564L684 563L687 566L690 571L689 573z"/></g><g><path stroke-linejoin="round" stroke-linecap="round" fill-rule="evenodd" stroke="#999" stroke-opacity="1" stroke-width="1" stroke-dasharray="1,6" fill="transparent" fill-opacity="0.2" class="leaflet-clickable" d="M558 588L559 587L558 588z"/></g><g><path stroke-linejoin="round" stroke-linecap="round" fill-rule="evenodd" stroke="#999" stroke-opacity="1" stroke-width="1" stroke-dasharray="1,6" fill="transparent" fill-opacity="0.2" class="leaflet-clickable" d="M851 527L848 521L846 521L845 516L841 518L838 513L838 509L833 511L833 504L831 502L832 498L835 496L833 495L837 490L836 487L839 485L839 483L843 483L844 481L844 472L840 475L837 469L835 471L822 470L820 473L815 466L813 467L811 465L809 469L807 469L802 463L802 461L800 461L800 457L803 451L802 447L791 450L788 444L783 441L781 443L780 442L780 437L778 436L773 438L772 440L763 438L760 434L765 429L762 428L761 426L763 424L769 424L770 422L771 423L771 421L775 420L774 422L776 423L777 421L778 423L784 417L786 417L786 419L791 417L793 421L797 421L800 419L796 412L795 406L797 402L802 398L802 395L799 395L800 394L795 391L795 393L791 394L790 389L787 386L790 381L793 380L791 370L794 370L796 363L794 358L795 357L792 356L793 353L803 355L802 356L805 358L808 357L809 358L807 361L810 360L811 363L813 363L813 361L818 362L819 357L821 357L820 356L826 353L827 351L826 349L824 349L824 345L831 343L839 348L843 340L845 339L849 342L853 341L863 333L867 335L870 334L872 329L876 329L879 324L887 324L893 329L893 327L899 328L899 325L903 327L907 325L912 326L910 329L911 331L913 330L918 335L916 339L909 339L905 342L903 339L901 340L902 341L900 341L900 343L902 344L902 346L899 354L896 356L900 358L902 363L904 364L904 366L903 365L899 368L897 367L896 369L903 375L903 377L905 375L909 376L909 372L915 369L917 366L918 367L925 364L927 365L924 368L924 370L928 370L930 368L931 369L937 361L938 364L945 363L947 361L951 361L955 365L956 363L956 368L958 370L956 370L959 372L960 369L962 370L964 376L964 378L962 379L964 379L965 382L962 385L961 384L954 388L959 402L956 401L951 406L949 405L950 406L947 408L940 408L945 413L947 412L952 424L949 426L950 429L947 431L949 432L944 435L939 446L940 449L944 449L947 452L953 449L954 450L956 447L958 448L954 455L957 459L958 464L959 463L961 466L960 469L955 468L958 478L951 483L953 483L954 486L950 490L950 492L945 496L945 506L941 508L934 505L933 500L930 498L932 502L929 503L929 505L926 503L928 501L925 498L922 500L913 501L913 505L909 505L905 508L905 511L910 511L913 507L915 507L915 505L917 507L918 505L922 507L917 516L919 517L919 522L922 524L921 526L918 526L917 528L910 524L905 525L902 523L897 527L895 524L895 517L886 517L886 521L885 520L883 522L883 524L886 526L881 527L879 530L881 532L880 533L879 531L877 537L880 540L880 549L877 546L877 543L868 534L866 533L863 536L859 529L852 526z"/></g><g><path stroke-linejoin="round" stroke-linecap="round" fill-rule="evenodd" stroke="#999" stroke-opacity="1" stroke-width="1" stroke-dasharray="1,6" fill="transparent" fill-opacity="0.2" class="leaflet-clickable" d="M956 391L958 388L961 390L960 395L962 403L959 402L957 394z"/></g><g><path stroke-linejoin="round" stroke-linecap="round" fill-rule="evenodd" stroke="#999" stroke-opacity="1" stroke-width="1" stroke-dasharray="1,6" fill="transparent" fill-opacity="0.2" class="leaflet-clickable" d="M963 403L965 404L967 400L969 401L964 406L964 404z"/></g><g><path stroke-linejoin="round" stroke-linecap="round" fill-rule="evenodd" stroke="#999" stroke-opacity="1" stroke-width="1" stroke-dasharray="1,6" fill="transparent" fill-opacity="0.2" class="leaflet-clickable" d="M813 361L813 359L819 357L818 361L817 360L818 362L815 361z"/></g><g><path stroke-linejoin="round" stroke-linecap="round" fill-rule="evenodd" stroke="#999" stroke-opacity="1" stroke-width="1" stroke-dasharray="1,6" fill="transparent" fill-opacity="0.2" class="leaflet-clickable" d="M686 452L688 454L687 456L696 456L699 455L699 451L700 452L703 449L707 451L709 450L710 452L714 451L713 453L717 460L719 460L722 457L719 454L722 451L720 449L721 448L713 447L717 443L717 440L715 439L713 441L710 439L713 435L715 435L715 433L717 433L715 431L719 424L717 422L725 418L721 415L723 415L724 413L729 413L728 409L730 409L729 405L731 405L729 404L731 402L732 403L739 397L744 395L756 398L757 397L758 391L754 377L748 374L748 368L750 365L749 362L756 359L756 355L754 353L745 352L751 345L751 339L757 332L757 328L761 330L764 329L765 332L769 334L767 340L771 342L772 339L778 340L778 345L774 352L776 352L779 356L780 352L782 355L784 354L782 351L792 351L792 356L795 357L794 358L796 363L794 370L791 370L793 379L787 386L791 391L791 394L798 392L802 397L795 406L796 412L800 418L799 420L793 421L789 417L787 419L786 417L784 417L778 423L774 423L775 420L773 420L771 423L763 423L761 425L762 428L765 429L760 434L763 438L768 440L772 440L773 438L778 436L780 437L780 442L786 442L791 448L791 450L802 447L803 451L800 457L800 462L801 461L807 469L809 469L810 465L813 467L815 466L820 473L820 471L821 472L822 470L834 471L836 469L839 471L839 475L843 472L845 475L843 478L843 483L839 483L836 489L837 490L833 494L835 496L832 498L831 501L833 503L832 511L838 509L840 518L843 518L845 516L845 519L849 522L851 528L849 531L845 533L846 535L844 537L844 534L841 533L838 535L838 537L841 537L841 539L836 540L838 542L836 545L836 556L834 556L834 558L831 560L824 560L812 565L809 568L802 568L804 564L804 562L801 560L802 557L801 555L796 560L796 557L793 555L792 548L790 548L788 554L786 553L787 554L780 557L780 559L776 558L776 549L773 551L770 545L771 541L768 538L765 540L761 539L760 536L763 535L762 530L753 523L754 521L752 518L747 522L738 523L739 527L733 531L732 535L729 536L731 543L734 545L734 552L731 554L732 555L724 555L722 561L712 561L708 563L702 562L695 571L692 571L689 574L690 571L687 566L682 562L687 559L686 553L684 548L680 547L679 543L681 542L677 538L679 538L680 536L679 534L677 534L678 529L679 530L686 514L681 511L679 514L671 512L669 511L669 507L664 509L662 508L665 506L663 496L665 495L668 488L667 482L670 481L669 478L664 475L663 477L662 475L664 469L665 468L666 470L668 467L665 466L667 459L669 459L666 456L664 456L665 454L668 453L670 456L672 456L674 450L680 451z"/></g><g><path stroke-linejoin="round" stroke-linecap="round" fill-rule="evenodd" stroke="#999" stroke-opacity="1" stroke-width="1" stroke-dasharray="1,6" fill="transparent" fill-opacity="0.2" class="leaflet-clickable" d="M662 476L661 477L661 475z"/></g></svg>
