<svg version="1.1" width="100" height="100" viewBox="0 0 100 100" xmlns="http://www.w3.org/2000/svg">
    <style>
        .line1{
        stroke-dasharray: 100; stroke-dashoffset: 80; animation: dash 3s linear alternate infinite;
        }
        @keyframes dash { from { stroke-dashoffset: 360; } to { stroke-dashoffset: 0; } }
    </style>
    <g>
        <path stroke-dashoffset="10" stroke-dasharray="20" fill="#2a366a"  stroke-width="2" stroke="rgba(255,255,255,.7)"  d="M49.999,3.29L9.547,26.646v46.709L49.999,96.71l40.454-23.355V26.646L49.999,3.29z M82.19,68.584L49.999,87.169 L17.811,68.584v-37.17l32.188-18.585L82.19,31.414V68.584z"></path>
        <path fill="#2a366a" stroke-width="12" class="line1" stroke="red" d="M20.368,32.89v34.218l29.631,17.108l29.634-17.108V32.89L49.999,15.782L20.368,32.89z M71.446,62.383l-21.447,12.38 l-21.444-12.38V37.618l21.444-12.382l21.447,12.382V62.383z"></path>
        <path fill="#2a366a" stroke-width="7" fill-opacity="0.6" stroke="#2a366a" d="M20.368,32.89v34.218l29.631,17.108l29.634-17.108V32.89L49.999,15.782L20.368,32.89z M71.446,62.383l-21.447,12.38 l-21.444-12.38V37.618l21.444-12.382l21.447,12.382V62.383z"></path>
        <path fill="#7897bf" stroke-width="15" stroke="#7897bf" d="M31.112,39.094v21.812L49.999,71.81l18.89-10.903V39.094l-18.89-10.905L31.112,39.094z M60.925,56.308l-10.926,6.307 l-10.924-6.307V43.692l10.924-6.308l10.926,6.308V56.308z"></path>
        <polygon fill="#7897bf" points="34.72,58.84 34.7,41.2 50,32.36 65.3,41.2 65.3,58.82 50,67.66 "></polygon>
    </g>
</svg>
